<?xml version="1.0" encoding="UTF-8" standalone="no"?>
<!DOCTYPE svg PUBLIC "-//W3C//DTD SVG 1.1//EN" "http://www.w3.org/Graphics/SVG/1.1/DTD/svg11.dtd">
<svg width="100%" height="100%" viewBox="0 0 1000 400" version="1.1" xmlns="http://www.w3.org/2000/svg" xmlns:xlink="http://www.w3.org/1999/xlink" xml:space="preserve" xmlns:serif="http://www.serif.com/" style="fill-rule:evenodd;clip-rule:evenodd;stroke-linecap:square;stroke-linejoin:round;stroke-miterlimit:1.5;">
    <g id="Container" transform="matrix(1,0,0,1,-1,95)">
        <g transform="matrix(1,0,0,1,-21,-84.6424)">
            <text x="416.793px" y="231.83px" style="font-family:'Hind-Bold', 'Hind';font-weight:700;font-size:125px;fill:rgb(114,137,218);">SUBCORD</text>
        </g>
        <g id="Icon" transform="matrix(0.762759,0,0,0.762759,7.31028,-96.9932)">
            <g id="Open-envelope" serif:id="Open envelope" transform="matrix(1.32814,0,0,0.767138,-69.8872,26.4065)">
                <path d="M207.369,88.745C227.06,62.083 254.713,62.089 274.401,88.759C313.902,142.267 374.234,223.995 374.234,223.995L107.458,224.019C107.458,224.019 167.844,142.26 207.369,88.745Z" style="fill:rgb(114,137,218);fill-opacity:0.66;stroke:rgb(114,137,218);stroke-width:10.07px;"/>
            </g>
            <g id="Letter" transform="matrix(1.0034,0,0,0.76687,3.63559,66.054)">
                <rect x="132.954" y="65.993" width="225.153" height="165.782" style="fill:white;"/>
                <g id="Lines" transform="matrix(0.882787,0,0,1.11118,24.8334,-34.3382)">
                    <path d="M247.25,101.236C247.25,100.347 246.91,99.493 246.304,98.864C245.699,98.234 244.878,97.881 244.022,97.881C227.279,97.881 150.466,97.881 133.723,97.881C132.867,97.881 132.046,98.234 131.441,98.864C130.835,99.493 130.495,100.347 130.495,101.236C130.495,102.789 130.495,104.629 130.495,106.182C130.495,107.072 130.835,107.926 131.441,108.555C132.046,109.184 132.867,109.538 133.723,109.538C150.466,109.538 227.279,109.538 244.022,109.538C244.878,109.538 245.699,109.184 246.304,108.555C246.91,107.926 247.25,107.072 247.25,106.182C247.25,104.629 247.25,102.789 247.25,101.236Z" style="fill:rgb(228,228,228);stroke:rgb(228,228,228);stroke-width:2.2px;"/>
                    <g transform="matrix(1.30468,0,0,1,-39.7597,19.3097)">
                        <path d="M247.25,101.236C247.25,99.383 246.142,97.881 244.776,97.881C229.506,97.881 148.239,97.881 132.969,97.881C131.603,97.881 130.495,99.383 130.495,101.236C130.495,102.789 130.495,104.629 130.495,106.182C130.495,108.035 131.603,109.538 132.969,109.538C148.239,109.538 229.506,109.538 244.776,109.538C246.142,109.538 247.25,108.035 247.25,106.182C247.25,104.629 247.25,102.789 247.25,101.236Z" style="fill:rgb(228,228,228);stroke:rgb(228,228,228);stroke-width:1.88px;"/>
                    </g>
                    <g transform="matrix(1.18872,0,0,1,-24.2778,38.6907)">
                        <path d="M247.25,101.236C247.25,100.347 246.964,99.493 246.455,98.864C245.945,98.234 245.255,97.881 244.534,97.881C228.752,97.881 148.993,97.881 133.211,97.881C132.491,97.881 131.8,98.234 131.291,98.864C130.781,99.493 130.495,100.347 130.495,101.236C130.495,102.789 130.495,104.629 130.495,106.182C130.495,107.072 130.781,107.926 131.291,108.555C131.8,109.184 132.491,109.538 133.211,109.538C148.993,109.538 228.752,109.538 244.534,109.538C245.255,109.538 245.945,109.184 246.455,108.555C246.964,107.926 247.25,107.072 247.25,106.182C247.25,104.629 247.25,102.789 247.25,101.236Z" style="fill:rgb(228,228,228);stroke:rgb(228,228,228);stroke-width:2px;"/>
                    </g>
                    <g transform="matrix(1.027,0,0,1,-3.52296,58)">
                        <path d="M247.25,101.236C247.25,100.347 246.919,99.493 246.329,98.864C245.74,98.234 244.94,97.881 244.107,97.881C227.512,97.881 150.233,97.881 133.639,97.881C132.805,97.881 132.005,98.234 131.416,98.864C130.826,99.493 130.495,100.347 130.495,101.236C130.495,102.789 130.495,104.629 130.495,106.182C130.495,107.072 130.826,107.926 131.416,108.555C132.005,109.184 132.805,109.538 133.639,109.538C150.233,109.538 227.512,109.538 244.107,109.538C244.94,109.538 245.74,109.184 246.329,108.555C246.919,107.926 247.25,107.072 247.25,106.182C247.25,104.629 247.25,102.789 247.25,101.236Z" style="fill:rgb(228,228,228);stroke:rgb(228,228,228);stroke-width:2.17px;"/>
                    </g>
                    <g transform="matrix(1.53291,0,0,1,-69.5423,77.3097)">
                        <path d="M247.25,101.236C247.25,100.347 247.028,99.493 246.633,98.864C246.238,98.234 245.703,97.881 245.144,97.881C230.749,97.881 146.997,97.881 132.601,97.881C132.043,97.881 131.507,98.234 131.112,98.864C130.717,99.493 130.495,100.347 130.495,101.236C130.495,102.789 130.495,104.629 130.495,106.182C130.495,107.072 130.717,107.926 131.112,108.555C131.507,109.184 132.043,109.538 132.601,109.538C146.997,109.538 230.749,109.538 245.144,109.538C245.703,109.538 246.238,109.184 246.633,108.555C247.028,107.926 247.25,107.072 247.25,106.182C247.25,104.629 247.25,102.789 247.25,101.236Z" style="fill:rgb(228,228,228);stroke:rgb(228,228,228);stroke-width:1.69px;"/>
                    </g>
                </g>
                <rect x="132.954" y="65.993" width="225.153" height="165.782" style="fill:none;stroke:white;stroke-width:15.29px;"/>
            </g>
            <g id="Face-backing" serif:id="Face backing" transform="matrix(0.885787,0,0,0.852132,28.5428,22.7211)">
                <rect x="141.009" y="239.206" width="227.192" height="153.636" style="fill:white;stroke:rgb(228,228,228);stroke-width:2.2px;"/>
            </g>
            <g id="Envelope-face" serif:id="Envelope face" transform="matrix(0.885787,0,0,0.852132,28.5428,69.621)">
                <path d="M450.024,150.962L50,150.962L50,327.13C50,341.357 61.095,352.89 74.781,352.89C146.475,352.89 353.549,352.89 425.243,352.89C438.929,352.89 450.024,341.357 450.024,327.13C450.024,272.702 450.024,150.962 450.024,150.962ZM181.503,279.747C176.362,277.547 170.442,279.35 167.256,284.086C164.071,288.822 164.475,295.221 168.228,299.484C185.285,318.483 215.543,333.178 250,333.178C284.457,333.178 314.715,318.483 331.76,299.473C335.507,295.215 335.91,288.825 332.729,284.096C329.548,279.367 323.636,277.565 318.503,279.761C299.101,287.993 275.262,295.433 250,295.433C224.738,295.433 200.899,287.993 181.503,279.747ZM184,194.756C196.572,194.756 206.779,204.963 206.779,217.535C206.779,230.107 196.572,240.314 184,240.314C171.428,240.314 161.221,230.107 161.221,217.535C161.221,204.963 171.428,194.756 184,194.756ZM316,194.756C328.572,194.756 338.779,204.963 338.779,217.535C338.779,230.107 328.572,240.314 316,240.314C303.428,240.314 293.221,230.107 293.221,217.535C293.221,204.963 303.428,194.756 316,194.756Z" style="fill:rgb(114,137,218);stroke:rgb(114,137,218);stroke-width:12.57px;stroke-linecap:round;"/>
            </g>
        </g>
    </g>
</svg>
