<?xml version="1.0" encoding="UTF-8" standalone="no"?>
<!DOCTYPE svg PUBLIC "-//W3C//DTD SVG 1.1//EN" "http://www.w3.org/Graphics/SVG/1.1/DTD/svg11.dtd">
<svg width="100%" height="100%" viewBox="0 0 500 500" version="1.1" xmlns="http://www.w3.org/2000/svg" xmlns:xlink="http://www.w3.org/1999/xlink" xml:space="preserve" xmlns:serif="http://www.serif.com/" style="fill-rule:evenodd;clip-rule:evenodd;stroke-linecap:square;stroke-linejoin:round;stroke-miterlimit:1.5;">
    <g id="Subcord" transform="matrix(0.885787,0,0,0.852132,28.5428,22.7211)">
        <g id="Open-envelope" serif:id="Open envelope" transform="matrix(1.49939,0,0,0.900258,-111.122,4.32492)">
            <path d="M215.321,77.978C230.341,57.641 251.433,57.646 266.451,77.989C305.172,130.441 374.234,223.995 374.234,223.995L107.458,224.019C107.458,224.019 176.577,130.435 215.321,77.978Z" style="fill:rgb(114,137,218);fill-opacity:0.66;stroke:rgb(114,137,218);stroke-width:7.68px;"/>
        </g>
        <g id="Letter" transform="matrix(1.13278,0,0,0.899943,-28.1187,50.8524)">
            <rect x="132.954" y="65.993" width="225.153" height="165.782" style="fill:white;"/>
            <g id="Lines" transform="matrix(0.882787,0,0,1.11118,24.8334,-34.3382)">
                <path d="M247.25,100.44C247.25,99.027 246.148,97.881 244.788,97.881C229.545,97.881 148.201,97.881 132.957,97.881C131.598,97.881 130.495,99.027 130.495,100.44C130.495,102.381 130.495,105.037 130.495,106.978C130.495,108.392 131.598,109.538 132.957,109.538C148.201,109.538 229.545,109.538 244.788,109.538C246.148,109.538 247.25,108.392 247.25,106.978C247.25,105.037 247.25,102.381 247.25,100.44Z" style="fill:rgb(228,228,228);stroke:rgb(228,228,228);stroke-width:1.68px;"/>
                <g transform="matrix(1.30468,0,0,1,-39.7597,19.3097)">
                    <path d="M247.25,100.44C247.25,99.762 247.051,99.11 246.697,98.63C246.343,98.15 245.863,97.881 245.363,97.881C231.549,97.881 146.196,97.881 132.382,97.881C131.882,97.881 131.402,98.15 131.048,98.63C130.694,99.11 130.495,99.762 130.495,100.44C130.495,102.381 130.495,105.037 130.495,106.978C130.495,107.657 130.694,108.308 131.048,108.788C131.402,109.268 131.882,109.538 132.382,109.538C146.196,109.538 231.549,109.538 245.363,109.538C245.863,109.538 246.343,109.268 246.697,108.788C247.051,108.308 247.25,107.657 247.25,106.978C247.25,105.037 247.25,102.381 247.25,100.44Z" style="fill:rgb(228,228,228);stroke:rgb(228,228,228);stroke-width:1.44px;"/>
                </g>
                <g transform="matrix(1.18872,0,0,1,-24.2778,38.6907)">
                    <path d="M247.25,100.44C247.25,99.762 247.032,99.11 246.643,98.63C246.255,98.15 245.728,97.881 245.179,97.881C230.872,97.881 146.874,97.881 132.567,97.881C132.017,97.881 131.49,98.15 131.102,98.63C130.713,99.11 130.495,99.762 130.495,100.44C130.495,102.381 130.495,105.037 130.495,106.978C130.495,107.657 130.713,108.308 131.102,108.788C131.49,109.268 132.017,109.538 132.567,109.538C146.874,109.538 230.872,109.538 245.179,109.538C245.728,109.538 246.255,109.268 246.643,108.788C247.032,108.308 247.25,107.657 247.25,106.978C247.25,105.037 247.25,102.381 247.25,100.44Z" style="fill:rgb(228,228,228);stroke:rgb(228,228,228);stroke-width:1.52px;"/>
                </g>
                <g transform="matrix(1.027,0,0,1,-3.52296,58)">
                    <path d="M247.25,100.44C247.25,99.762 246.997,99.11 246.548,98.63C246.098,98.15 245.488,97.881 244.852,97.881C229.755,97.881 147.99,97.881 132.893,97.881C132.257,97.881 131.647,98.15 131.197,98.63C130.748,99.11 130.495,99.762 130.495,100.44C130.495,102.381 130.495,105.037 130.495,106.978C130.495,107.657 130.748,108.308 131.197,108.788C131.647,109.268 132.257,109.538 132.893,109.538C147.99,109.538 229.755,109.538 244.852,109.538C245.488,109.538 246.098,109.268 246.548,108.788C246.997,108.308 247.25,107.657 247.25,106.978C247.25,105.037 247.25,102.381 247.25,100.44Z" style="fill:rgb(228,228,228);stroke:rgb(228,228,228);stroke-width:1.65px;"/>
                </g>
                <g transform="matrix(1.53291,0,0,1,-69.5423,77.3097)">
                    <path d="M247.25,100.44C247.25,99.762 247.081,99.11 246.78,98.63C246.478,98.15 246.07,97.881 245.644,97.881C232.664,97.881 145.081,97.881 132.101,97.881C131.675,97.881 131.267,98.15 130.966,98.63C130.664,99.11 130.495,99.762 130.495,100.44C130.495,102.381 130.495,105.037 130.495,106.978C130.495,107.657 130.664,108.308 130.966,108.788C131.267,109.268 131.675,109.538 132.101,109.538C145.081,109.538 232.664,109.538 245.644,109.538C246.07,109.538 246.478,109.268 246.78,108.788C247.081,108.308 247.25,107.657 247.25,106.978C247.25,105.037 247.25,102.381 247.25,100.44Z" style="fill:rgb(228,228,228);stroke:rgb(228,228,228);stroke-width:1.29px;"/>
                </g>
            </g>
            <rect x="132.954" y="65.993" width="225.153" height="165.782" style="fill:none;stroke:white;stroke-width:11.66px;"/>
        </g>
        <rect id="Face-backing" serif:id="Face backing" x="141.009" y="239.206" width="227.192" height="153.636" style="fill:white;stroke:rgb(228,228,228);stroke-width:1.68px;"/>
        <g id="Envelope-face" serif:id="Envelope face" transform="matrix(1,0,0,1,0,55.0384)">
            <path d="M450.024,150.962L50,150.962L50,333.241C50,344.093 58.463,352.89 68.902,352.89L431.122,352.89C441.561,352.89 450.024,344.093 450.024,333.241L450.024,150.962ZM171.832,275.421C168.213,273.733 163.958,274.693 161.336,277.787C158.714,280.882 158.336,285.391 160.404,288.91C174.585,312.75 209.374,333.178 250,333.178C290.626,333.178 325.415,312.75 339.593,288.908C341.659,285.39 341.281,280.883 338.661,277.79C336.04,274.697 331.787,273.738 328.169,275.424C307.324,285.19 279.641,295.433 250,295.433C220.359,295.433 192.676,285.19 171.832,275.421ZM184,194.756C196.572,194.756 206.779,204.963 206.779,217.535C206.779,230.107 196.572,240.314 184,240.314C171.428,240.314 161.221,230.107 161.221,217.535C161.221,204.963 171.428,194.756 184,194.756ZM316,194.756C328.572,194.756 338.779,204.963 338.779,217.535C338.779,230.107 328.572,240.314 316,240.314C303.428,240.314 293.221,230.107 293.221,217.535C293.221,204.963 303.428,194.756 316,194.756Z" style="fill:rgb(114,137,218);stroke:rgb(114,137,218);stroke-width:9.59px;stroke-linecap:round;"/>
        </g>
    </g>
</svg>
